<?xml version="1.0" standalone="no"?><!DOCTYPE svg PUBLIC "-//W3C//DTD SVG 1.1//EN" "http://www.w3.org/Graphics/SVG/1.1/DTD/svg11.dtd"><svg xmlns:xlink="http://www.w3.org/1999/xlink" version="1.1" class="highcharts-root" style="font-family:&quot;Lucida Grande&quot;, &quot;Lucida Sans Unicode&quot;, Arial, Helvetica, sans-serif;font-size:12px;" xmlns="http://www.w3.org/2000/svg" width="600" height="400" viewBox="0 0 600 400"><desc>Created with Highcharts 6.2.0</desc><defs><clipPath id="highcharts-b4hva4w-48"><rect x="0" y="0" width="335" height="291" fill="none"></rect></clipPath></defs><rect fill="#ffffff" class="highcharts-background" x="0" y="0" width="600" height="400" rx="0" ry="0"></rect><rect fill="none" class="highcharts-plot-background" x="81" y="72" width="335" height="291"></rect><g class="highcharts-grid highcharts-xaxis-grid " data-z-index="1"><path fill="none" data-z-index="1" class="highcharts-grid-line" d="M 83.5 72 L 83.5 363" opacity="1"></path><path fill="none" data-z-index="1" class="highcharts-grid-line" d="M 177.5 72 L 177.5 363" opacity="1"></path><path fill="none" data-z-index="1" class="highcharts-grid-line" d="M 271.5 72 L 271.5 363" opacity="1"></path><path fill="none" data-z-index="1" class="highcharts-grid-line" d="M 365.5 72 L 365.5 363" opacity="1"></path></g><g class="highcharts-grid highcharts-yaxis-grid " data-z-index="1"><path fill="none" stroke="#e6e6e6" stroke-width="1" data-z-index="1" class="highcharts-grid-line" d="M 81 363.5 L 416 363.5" opacity="1"></path><path fill="none" stroke="#e6e6e6" stroke-width="1" data-z-index="1" class="highcharts-grid-line" d="M 81 290.5 L 416 290.5" opacity="1"></path><path fill="none" stroke="#e6e6e6" stroke-width="1" data-z-index="1" class="highcharts-grid-line" d="M 81 218.5 L 416 218.5" opacity="1"></path><path fill="none" stroke="#e6e6e6" stroke-width="1" data-z-index="1" class="highcharts-grid-line" d="M 81 145.5 L 416 145.5" opacity="1"></path><path fill="none" stroke="#e6e6e6" stroke-width="1" data-z-index="1" class="highcharts-grid-line" d="M 81 71.5 L 416 71.5" opacity="1"></path></g><rect fill="none" class="highcharts-plot-border" data-z-index="1" x="81" y="72" width="335" height="291"></rect><g class="highcharts-axis highcharts-xaxis " data-z-index="2"><path fill="none" class="highcharts-tick" stroke="#ccd6eb" stroke-width="1" d="M 83.5 363 L 83.5 373" opacity="1"></path><path fill="none" class="highcharts-tick" stroke="#ccd6eb" stroke-width="1" d="M 177.5 363 L 177.5 373" opacity="1"></path><path fill="none" class="highcharts-tick" stroke="#ccd6eb" stroke-width="1" d="M 271.5 363 L 271.5 373" opacity="1"></path><path fill="none" class="highcharts-tick" stroke="#ccd6eb" stroke-width="1" d="M 365.5 363 L 365.5 373" opacity="1"></path><path fill="none" class="highcharts-axis-line" stroke="#ccd6eb" stroke-width="1" data-z-index="7" d="M 81 363.5 L 416 363.5"></path></g><g class="highcharts-axis highcharts-yaxis " data-z-index="2"><text x="25.8125" data-z-index="7" text-anchor="middle" transform="translate(0,0) rotate(270 25.8125 217.5)" class="highcharts-axis-title" style="color:#666666;fill:#666666;" y="217.5"><tspan>Number of Employees</tspan></text><path fill="none" class="highcharts-axis-line" data-z-index="7" d="M 81 72 L 81 363"></path></g><g class="highcharts-series-group" data-z-index="3"><g data-z-index="0.1" class="highcharts-series highcharts-series-0 highcharts-line-series highcharts-color-0 " transform="translate(81,72) scale(1 1)" clip-path="url(#highcharts-b4hva4w-48)"><path fill="none" d="M 3.2843137254873 227.07603 L 50.203081232491 214.608135 L 97.121848739495 207.807465 L 144.0406162465 189.64761 L 190.9593837535 149.819895 L 237.87815126051 116.500395 L 284.79691876751 91.471485 L 331.71568627451 66.675375" class="highcharts-graph" data-z-index="1" stroke="#7cb5ec" stroke-width="2" stroke-linejoin="round" stroke-linecap="round"></path></g><g data-z-index="0.1" class="highcharts-markers highcharts-series-0 highcharts-line-series highcharts-color-0 " transform="translate(81,72) scale(1 1)" clip-path="none"><path fill="#7cb5ec" d="M 7 227 A 4 4 0 1 1 6.999998000000167 226.99600000066667 Z" class="highcharts-point highcharts-color-0"></path><path fill="#7cb5ec" d="M 54 215 A 4 4 0 1 1 53.99999800000017 214.99600000066667 Z" class="highcharts-point highcharts-color-0"></path><path fill="#7cb5ec" d="M 101 208 A 4 4 0 1 1 100.99999800000016 207.99600000066667 Z" class="highcharts-point highcharts-color-0"></path><path fill="#7cb5ec" d="M 148 190 A 4 4 0 1 1 147.99999800000018 189.99600000066667 Z" class="highcharts-point highcharts-color-0"></path><path fill="#7cb5ec" d="M 194 150 A 4 4 0 1 1 193.99999800000018 149.99600000066667 Z" class="highcharts-point highcharts-color-0"></path><path fill="#7cb5ec" d="M 241 117 A 4 4 0 1 1 240.99999800000018 116.99600000066667 Z" class="highcharts-point highcharts-color-0"></path><path fill="#7cb5ec" d="M 288 91 A 4 4 0 1 1 287.9999980000002 90.99600000066667 Z" class="highcharts-point highcharts-color-0"></path><path fill="#7cb5ec" d="M 335 67 A 4 4 0 1 1 334.9999980000002 66.99600000066667 Z" class="highcharts-point highcharts-color-0"></path></g><g data-z-index="0.1" class="highcharts-series highcharts-series-1 highcharts-line-series highcharts-color-1 " transform="translate(81,72) scale(1 1)" clip-path="url(#highcharts-b4hva4w-48)"><path fill="none" d="M 3.2843137254873 254.74722 L 50.203081232491 255.98687999999999 L 97.121848739495 247.72539 L 144.0406162465 247.566795 L 190.9593837535 243.72705000000002 L 237.87815126051 246.93969 L 284.79691876751 235.53394500000002 L 331.71568627451 232.16853" class="highcharts-graph" data-z-index="1" stroke="#434348" stroke-width="2" stroke-linejoin="round" stroke-linecap="round"></path></g><g data-z-index="0.1" class="highcharts-markers highcharts-series-1 highcharts-line-series highcharts-color-1 " transform="translate(81,72) scale(1 1)" clip-path="none"><path fill="#434348" d="M 3 251 L 7 255 3 259 -1 255 Z" class="highcharts-point highcharts-color-1"></path><path fill="#434348" d="M 50 252 L 54 256 50 260 46 256 Z" class="highcharts-point highcharts-color-1"></path><path fill="#434348" d="M 97 244 L 101 248 97 252 93 248 Z" class="highcharts-point highcharts-color-1"></path><path fill="#434348" d="M 144 244 L 148 248 144 252 140 248 Z" class="highcharts-point highcharts-color-1"></path><path fill="#434348" d="M 190 240 L 194 244 190 248 186 244 Z" class="highcharts-point highcharts-color-1"></path><path fill="#434348" d="M 237 243 L 241 247 237 251 233 247 Z" class="highcharts-point highcharts-color-1"></path><path fill="#434348" d="M 284 232 L 288 236 284 240 280 236 Z" class="highcharts-point highcharts-color-1"></path><path fill="#434348" d="M 331 228 L 335 232 331 236 327 232 Z" class="highcharts-point highcharts-color-1"></path></g><g data-z-index="0.1" class="highcharts-series highcharts-series-2 highcharts-line-series highcharts-color-2 " transform="translate(81,72) scale(1 1)" clip-path="url(#highcharts-b4hva4w-48)"><path fill="none" d="M 3.2843137254873 273.91248 L 50.203081232491 265.21449 L 97.121848739495 267.712725 L 144.0406162465 262.233195 L 190.9593837535 261.630825 L 237.87815126051 255.531465 L 284.79691876751 244.226115 L 331.71568627451 233.691915" class="highcharts-graph" data-z-index="1" stroke="#90ed7d" stroke-width="2" stroke-linejoin="round" stroke-linecap="round"></path></g><g data-z-index="0.1" class="highcharts-markers highcharts-series-2 highcharts-line-series highcharts-color-2 " transform="translate(81,72) scale(1 1)" clip-path="none"><path fill="#90ed7d" d="M -1 270 L 7 270 7 278 -1 278 Z" class="highcharts-point highcharts-color-2"></path><path fill="#90ed7d" d="M 46 261 L 54 261 54 269 46 269 Z" class="highcharts-point highcharts-color-2"></path><path fill="#90ed7d" d="M 93 264 L 101 264 101 272 93 272 Z" class="highcharts-point highcharts-color-2"></path><path fill="#90ed7d" d="M 140 258 L 148 258 148 266 140 266 Z" class="highcharts-point highcharts-color-2"></path><path fill="#90ed7d" d="M 186 258 L 194 258 194 266 186 266 Z" class="highcharts-point highcharts-color-2"></path><path fill="#90ed7d" d="M 233 252 L 241 252 241 260 233 260 Z" class="highcharts-point highcharts-color-2"></path><path fill="#90ed7d" d="M 280 240 L 288 240 288 248 280 248 Z" class="highcharts-point highcharts-color-2"></path><path fill="#90ed7d" d="M 327 230 L 335 230 335 238 327 238 Z" class="highcharts-point highcharts-color-2"></path></g><g data-z-index="0.1" class="highcharts-series highcharts-series-3 highcharts-line-series highcharts-color-3 " transform="translate(81,72) scale(1 1)" clip-path="url(#highcharts-b4hva4w-48)"><path fill="none" d="M 97.121848739495 279.37746 L 144.0406162465 273.294105 L 190.9593837535 269.01204 L 237.87815126051 258.33234 L 284.79691876751 240.948 L 331.71568627451 241.199715" class="highcharts-graph" data-z-index="1" stroke="#f7a35c" stroke-width="2" stroke-linejoin="round" stroke-linecap="round"></path></g><g data-z-index="0.1" class="highcharts-markers highcharts-series-3 highcharts-line-series highcharts-color-3 " transform="translate(81,72) scale(1 1)" clip-path="none"><path fill="#f7a35c" d="M 97 275 L 101 283 93 283 Z" class="highcharts-point highcharts-color-3"></path><path fill="#f7a35c" d="M 144 269 L 148 277 140 277 Z" class="highcharts-point highcharts-color-3"></path><path fill="#f7a35c" d="M 190 265 L 194 273 186 273 Z" class="highcharts-point highcharts-color-3"></path><path fill="#f7a35c" d="M 237 254 L 241 262 233 262 Z" class="highcharts-point highcharts-color-3"></path><path fill="#f7a35c" d="M 284 237 L 288 245 280 245 Z" class="highcharts-point highcharts-color-3"></path><path fill="#f7a35c" d="M 331 237 L 335 245 327 245 Z" class="highcharts-point highcharts-color-3"></path></g><g data-z-index="0.1" class="highcharts-series highcharts-series-4 highcharts-line-series highcharts-color-4 " transform="translate(81,72) scale(1 1)" clip-path="url(#highcharts-b4hva4w-48)"><path fill="none" d="M 3.2843137254873 272.21886 L 50.203081232491 282.34566 L 97.121848739495 279.207225 L 144.0406162465 274.63416 L 190.9593837535 277.921005 L 237.87815126051 273.80772 L 284.79691876751 264.41133 L 331.71568627451 264.648495" class="highcharts-graph" data-z-index="1" stroke="#8085e9" stroke-width="2" stroke-linejoin="round" stroke-linecap="round"></path></g><g data-z-index="0.1" class="highcharts-markers highcharts-series-4 highcharts-line-series highcharts-color-4 " transform="translate(81,72) scale(1 1)" clip-path="none"><path fill="#8085e9" d="M -1 268 L 7 268 3 276 Z" class="highcharts-point highcharts-color-4"></path><path fill="#8085e9" d="M 46 278 L 54 278 50 286 Z" class="highcharts-point highcharts-color-4"></path><path fill="#8085e9" d="M 93 275 L 101 275 97 283 Z" class="highcharts-point highcharts-color-4"></path><path fill="#8085e9" d="M 140 271 L 148 271 144 279 Z" class="highcharts-point highcharts-color-4"></path><path fill="#8085e9" d="M 186 274 L 194 274 190 282 Z" class="highcharts-point highcharts-color-4"></path><path fill="#8085e9" d="M 233 270 L 241 270 237 278 Z" class="highcharts-point highcharts-color-4"></path><path fill="#8085e9" d="M 280 260 L 288 260 284 268 Z" class="highcharts-point highcharts-color-4"></path><path fill="#8085e9" d="M 327 261 L 335 261 331 269 Z" class="highcharts-point highcharts-color-4"></path></g></g><g class="highcharts-label" opacity="1" data-z-index="3" transform="translate(343,117)"><path fill="none" class="highcharts-label-box" d="M 0 0" stroke="#7cb5ec" stroke-width="1"></path><text x="0" data-z-index="1" style="font-weight:bold;color:#7cb5ec;fill:#7cb5ec;" y="12">Installation</text></g><g class="highcharts-label" opacity="1" data-z-index="3" transform="translate(323,283)"><path fill="none" class="highcharts-label-box" d="M 0 0" stroke="#434348" stroke-width="1"></path><text x="0" data-z-index="1" style="font-weight:bold;color:#434348;fill:#434348;" y="12">Manufacturing</text></g><g class="highcharts-label" opacity="1" data-z-index="3" transform="translate(375,340)"><path fill="none" class="highcharts-label-box" d="M 0 0" stroke="#8085e9" stroke-width="1"></path><text x="0" data-z-index="1" style="font-weight:bold;color:#8085e9;fill:#8085e9;" y="12">Other</text></g><text x="300" text-anchor="middle" class="highcharts-title" data-z-index="4" style="color:#333333;font-size:18px;fill:#333333;" y="24"><tspan>Solar Employment Growth by Sector, 2010-2016</tspan></text><text x="300" text-anchor="middle" class="highcharts-subtitle" data-z-index="4" style="color:#666666;fill:#666666;" y="52"><tspan>Source: thesolarfoundation.com</tspan></text><g class="highcharts-legend" data-z-index="7" transform="translate(428,145)"><rect fill="none" class="highcharts-legend-box" rx="0" ry="0" x="0" y="0" width="162" height="106" visibility="visible"></rect><g data-z-index="1"><g><g class="highcharts-legend-item highcharts-line-series highcharts-color-0 highcharts-series-0" data-z-index="1" transform="translate(8,3)"><path fill="none" d="M 0 11 L 16 11" class="highcharts-graph" stroke="#7cb5ec" stroke-width="2"></path><path fill="#7cb5ec" d="M 12 11 A 4 4 0 1 1 11.999998000000167 10.996000000666664 Z" class="highcharts-point"></path><text x="21" style="color:#333333;font-size:12px;font-weight:bold;cursor:pointer;fill:#333333;" text-anchor="start" data-z-index="2" y="15"><tspan>Installation</tspan></text></g><g class="highcharts-legend-item highcharts-line-series highcharts-color-1 highcharts-series-1" data-z-index="1" transform="translate(8,22)"><path fill="none" d="M 0 11 L 16 11" class="highcharts-graph" stroke="#434348" stroke-width="2"></path><path fill="#434348" d="M 8 7 L 12 11 8 15 4 11 Z" class="highcharts-point"></path><text x="21" y="15" style="color:#333333;font-size:12px;font-weight:bold;cursor:pointer;fill:#333333;" text-anchor="start" data-z-index="2"><tspan>Manufacturing</tspan></text></g><g class="highcharts-legend-item highcharts-line-series highcharts-color-2 highcharts-series-2" data-z-index="1" transform="translate(8,41)"><path fill="none" d="M 0 11 L 16 11" class="highcharts-graph" stroke="#90ed7d" stroke-width="2"></path><path fill="#90ed7d" d="M 4 7 L 12 7 12 15 4 15 Z" class="highcharts-point"></path><text x="21" y="15" style="color:#333333;font-size:12px;font-weight:bold;cursor:pointer;fill:#333333;" text-anchor="start" data-z-index="2"><tspan>Sales &amp; Distribution</tspan></text></g><g class="highcharts-legend-item highcharts-line-series highcharts-color-3 highcharts-series-3" data-z-index="1" transform="translate(8,60)"><path fill="none" d="M 0 11 L 16 11" class="highcharts-graph" stroke="#f7a35c" stroke-width="2"></path><path fill="#f7a35c" d="M 8 7 L 12 15 4 15 Z" class="highcharts-point"></path><text x="21" y="15" style="color:#333333;font-size:12px;font-weight:bold;cursor:pointer;fill:#333333;" text-anchor="start" data-z-index="2"><tspan>Project Development</tspan></text></g><g class="highcharts-legend-item highcharts-line-series highcharts-color-4 highcharts-series-4" data-z-index="1" transform="translate(8,79)"><path fill="none" d="M 0 11 L 16 11" class="highcharts-graph" stroke="#8085e9" stroke-width="2"></path><path fill="#8085e9" d="M 4 7 L 12 7 8 15 Z" class="highcharts-point"></path><text x="21" y="15" style="color:#333333;font-size:12px;font-weight:bold;cursor:pointer;fill:#333333;" text-anchor="start" data-z-index="2"><tspan>Other</tspan></text></g></g></g></g><g class="highcharts-axis-labels highcharts-xaxis-labels " data-z-index="7"><text x="84.284313725487" style="color:#666666;cursor:default;font-size:11px;fill:#666666;" text-anchor="middle" transform="translate(0,0)" y="382" opacity="1">2010</text><text x="178.12184873949" style="color:#666666;cursor:default;font-size:11px;fill:#666666;" text-anchor="middle" transform="translate(0,0)" y="382" opacity="1">2012</text><text x="271.9593837535" style="color:#666666;cursor:default;font-size:11px;fill:#666666;" text-anchor="middle" transform="translate(0,0)" y="382" opacity="1">2014</text><text x="365.79691876751" style="color:#666666;cursor:default;font-size:11px;fill:#666666;" text-anchor="middle" transform="translate(0,0)" y="382" opacity="1">2016</text></g><g class="highcharts-axis-labels highcharts-yaxis-labels " data-z-index="7"><text x="66" style="color:#666666;cursor:default;font-size:11px;fill:#666666;" text-anchor="end" transform="translate(0,0)" y="367" opacity="1">0</text><text x="66" style="color:#666666;cursor:default;font-size:11px;fill:#666666;" text-anchor="end" transform="translate(0,0)" y="294" opacity="1">50k</text><text x="66" style="color:#666666;cursor:default;font-size:11px;fill:#666666;" text-anchor="end" transform="translate(0,0)" y="222" opacity="1">100k</text><text x="66" style="color:#666666;cursor:default;font-size:11px;fill:#666666;" text-anchor="end" transform="translate(0,0)" y="149" opacity="1">150k</text><text x="66" style="color:#666666;cursor:default;font-size:11px;fill:#666666;" text-anchor="end" transform="translate(0,0)" y="76" opacity="1">200k</text></g><text x="590" class="highcharts-credits" text-anchor="end" data-z-index="8" style="cursor:pointer;color:#999999;font-size:9px;fill:#999999;" y="395">Highcharts.com</text></svg>