<?xml version="1.0" encoding="utf-8"?>
<!-- Generator: Adobe Illustrator 22.1.0, SVG Export Plug-In . SVG Version: 6.00 Build 0)  -->
<svg version="1.1" id="Layer_1" xmlns="http://www.w3.org/2000/svg" xmlns:xlink="http://www.w3.org/1999/xlink" x="0px" y="0px"
	 viewBox="0 0 166.4 47.6" style="enable-background:new 0 0 166.4 47.6;" xml:space="preserve">
<style type="text/css">
	.st0{fill:#010101;}
	.st1{fill:#2EA853;}
	.st2{fill:#F5BB2D;}
	.st3{fill:#567CBE;}
	.st4{fill:#E94637;}
	.st5{fill:#231F20;}
</style>
<title>PTlogo</title>
<g>
	<path class="st0" d="M44.9,37.4c-2.4,2.6-6.5,3-9.4,0.8l-0.1,0c0-0.1,0-0.1,0-0.2l1.1-1.9l1.6-2.8c0,0,0-0.1,0.1-0.1
		c0.1-0.1,0.1-0.1,0.1,0c0,0.3,0.1,0.6,0.4,0.8c0.4,0.3,1,0.3,1.4-0.1c0,0,0.1-0.1,0.1-0.1c0.3-0.4,0.5-0.8,0.7-1.3
		c1-1.7,1.9-3.3,2.9-5l1.5-2.7c0.1-0.1,0.2-0.2,0.4-0.2h9.9c0.3,0,0.7-0.2,0.9-0.4c0.2-0.3,0.2-0.7,0.1-1c-0.1-0.3-0.5-0.5-0.8-0.6
		H44.6c-0.1,0-0.2,0-0.3,0c-0.1-0.1,0-0.1,0-0.2c0.1-0.3,0.3-0.5,0.5-0.8c0.9-1.6,1.9-3.2,2.8-4.9c0-0.1,0.1-0.1,0.2-0.2
		c0.2,0,0.4,0,0.6,0c0.6,0,1.2,0,1.7,0c0.8,0,1.7,0,2.5,0s1.7,0,2.5,0c0.5,0,0.9,0,1.4,0.1c0.1,0,0.2,0,0.2,0.1
		c0.6,0.1,1.1,0.3,1.6,0.6c2,1,3.5,2.9,3.8,5.2c0.5,3.6-1.8,7-5.3,7.9h-0.1c-0.1,0.1-0.1,0.1-0.2,0.1c-0.4,0.1-0.9,0.1-1.3,0.1
		c-1.6,0-3.3,0-4.9,0h-1.1c-0.1,0-0.2,0.1-0.2,0.1c-0.2,0.3-0.3,0.6-0.5,0.9c-0.5,0.9-1.1,1.8-1.6,2.8c-0.4,0.7-0.8,1.5-1.3,2.2
		c-0.1,0.2-0.3,0.4-0.4,0.5C45.1,37.3,45,37.4,44.9,37.4z"/>
	<path class="st1" d="M47.7,16.8l-1.6,2.7l-1.8,3.1l-0.1,0.2c-0.1,0.1-0.2,0.1-0.3,0.1h-6.3c-0.1,0-0.2,0-0.2,0
		c-0.1,0-0.1-0.1,0-0.2c0.2-0.3,0.4-0.6,0.5-0.9l2.5-4.4c0.1-0.2,0.2-0.3,0.3-0.5c0.2-0.3,0.4-0.7,0.6-1c0.6-1.1,1.2-2.1,1.8-3.2
		c0.4-0.7,0.8-1.4,1.3-2.1c0.1-0.1,0.2-0.3,0.3-0.3c0.4-0.4,0.9-0.8,1.4-1.2c3.3-2,7.6-1,9.6,2.3c1.1,1.7,1.3,3.8,0.8,5.7
		c0,0,0,0,0,0.1c-1-0.2-2-0.2-3-0.2c-1.2,0-2.3,0-3.5,0h-0.2c0-0.1,0-0.1,0-0.2l0.7-1.3c0.2-0.2,0.2-0.5,0.2-0.8
		c-0.1-0.4-0.4-0.7-0.8-0.8c-0.4-0.1-0.8,0.1-1,0.5c-0.4,0.7-0.8,1.4-1.2,2.1l-0.2,0.4C47.8,16.7,47.8,16.8,47.7,16.8z"/>
	<path class="st2" d="M40.9,16.8c-0.3,0.5-0.6,1.1-0.9,1.6l-2.5,4.2c0,0,0,0.1,0,0.1s-0.2,0-0.2,0h-3.1c-0.5,0-1,0.4-1,0.9
		c0,0.5,0.4,1,0.9,1H36c0.1,0,0.1,0,0.2,0c0.1,0.1,0,0.1,0,0.2l-0.6,1c-0.7,1.1-1.3,2.2-1.9,3.3c-0.2,0.4-0.4,0.8-0.5,1.2
		c0,0.1,0,0.1-0.1,0.1c-2.7-0.6-4.9-2.7-5.4-5.4c-0.5-2.4,0.3-4.9,2.1-6.6c0.9-0.8,2-1.4,3.2-1.7h0.1c0.1,0,0.1-0.1,0.2-0.1
		c0.4-0.1,0.9-0.1,1.3-0.1c1.7,0,3.3,0,5,0h0.2c0.3,0,0.7,0,1,0C40.8,16.7,40.8,16.7,40.9,16.8z"/>
	<path class="st3" d="M50.2,30.8h0.2h4c0.8,0,1.6,0,2.4-0.2c0.1,0.4,0.2,0.8,0.3,1.2c0.2,1.1,0,2.2-0.3,3.2c-0.8,2.3-2.8,4-5.2,4.5
		c-2.3,0.5-4.8-0.3-6.4-2L45,37.5c0.6-0.8,1.2-1.7,1.7-2.6c0.6-1,1.1-1.9,1.7-2.9c0,0,0-0.1,0.1-0.1s0.1,0.1,0.1,0.1
		c0.2,0.4,0.4,0.7,0.7,1.1c0.2,0.4,0.7,0.6,1.1,0.5c0.5-0.1,0.9-0.6,0.8-1.2c0-0.1-0.1-0.2-0.1-0.3L50.3,31
		C50.2,30.9,50.1,30.8,50.2,30.8z"/>
	<path class="st4" d="M39.7,16.8h-5c-0.5,0-1,0-1.5,0.1h-0.1c-0.2-0.7-0.3-1.4-0.3-2.2c0-3.3,2.3-6.1,5.6-6.8c2.4-0.5,4.8,0.3,6.4,2
		l0.1,0.1c-0.7,0.9-1.3,1.9-1.9,2.9c-0.5,0.9-1,1.7-1.5,2.6l-0.1,0.1c-0.1,0-0.1-0.1-0.1-0.1c-0.2-0.4-0.4-0.8-0.7-1.1
		c-0.2-0.4-0.6-0.6-1.1-0.5c-0.5,0.1-0.9,0.6-0.8,1.2c0,0.1,0.1,0.2,0.1,0.3l0.7,1.2C39.7,16.7,39.7,16.7,39.7,16.8z"/>
	<path class="st1" d="M33.1,30.6c0.5-1.3,1.2-2.5,1.9-3.6c0.4-0.7,0.8-1.5,1.3-2.2c0-0.1,0.1,0,0.2,0H43c0.1,0,0.1,0,0.1,0.2
		c-0.1,0.1-0.2,0.3-0.3,0.5l-2.9,5.1c-0.4,0.7-0.9,1.5-1.3,2.2c-0.1,0.1-0.2,0.3-0.2,0.5c0,0,0,0.1-0.1,0.1s-0.1,0-0.1,0
		c-0.2,0.4-0.4,0.7-0.6,1.1l-2.1,3.7c0,0,0,0.1,0,0.1c-2.3-1.8-3.2-4.7-2.4-7.5C33.1,30.7,33.1,30.7,33.1,30.6z"/>
</g>
<g>
	<g>
		<path class="st5" d="M69.3,15.5c1.8,0,2.8,0.9,2.8,2.4c0,1.5-1,2.5-2.8,2.5h-1.6v2.1h-1.2v-7H69.3z M67.7,19.3h1.6
			c1.1,0,1.7-0.5,1.7-1.4s-0.6-1.3-1.7-1.3h-1.6V19.3z"/>
		<path class="st5" d="M74.4,18.2c0.3-0.7,1.1-1.1,1.8-1.1v1.1c-0.9-0.1-1.7,0.5-1.8,1.4c0,0,0,0.1,0,0.1v2.8h-1.2v-5.4h1.2V18.2z"
			/>
		<path class="st5" d="M78.4,15.6c0,0.4-0.3,0.7-0.7,0.7c-0.4,0-0.7-0.3-0.7-0.7c0-0.4,0.3-0.7,0.7-0.7C78.1,15,78.4,15.3,78.4,15.6
			z M77.2,22.5v-5.4h1.1v5.4H77.2z"/>
		<path class="st5" d="M84.4,18l-0.6,0.7c-0.4-0.4-1-0.6-1.5-0.6c-0.9,0.1-1.6,0.9-1.6,1.9c0.1,0.8,0.7,1.5,1.6,1.6
			c0.6,0,1.2-0.2,1.6-0.7l0.7,0.7c-0.6,0.7-1.4,1-2.3,1c-1.5,0-2.7-1.2-2.7-2.7c0-1.5,1.2-2.7,2.7-2.7C83.1,17.1,83.9,17.4,84.4,18z
			"/>
		<path class="st5" d="M90.2,20.3h-4c0.1,0.8,0.8,1.4,1.7,1.3c0.6,0,1.1-0.2,1.5-0.6l0.6,0.7c-0.6,0.6-1.4,0.9-2.2,0.9
			c-1.4,0.1-2.6-1-2.7-2.4c0-0.1,0-0.2,0-0.3c-0.1-1.4,1-2.6,2.5-2.7c0.1,0,0.2,0,0.2,0C89.6,17.1,90.3,18.3,90.2,20.3z M89.2,19.4
			c0-0.8-0.6-1.4-1.4-1.4c0,0-0.1,0-0.1,0c-0.8,0-1.5,0.6-1.6,1.4H89.2z"/>
		<path class="st5" d="M95.1,16.8l-0.8,5.7h-1.6l0.8-5.7h-2.1l0.2-1.3h5.9l-0.2,1.3L95.1,16.8z"/>
		<path class="st5" d="M102.1,22.5l-0.7-3.6l-1.7,3.6h-1.5l-1.2-5.4h1.6l0.7,3.9l1.7-3.9h1.5l0.6,3.9l1.7-3.9h1.5l-2.8,5.4H102.1z"
			/>
		<path class="st5" d="M111.4,20.3h-3.9c0,0.6,0.6,1.1,1.2,1.1c0,0,0,0,0,0c0.5,0,1-0.2,1.4-0.6l0.7,0.8c-0.7,0.6-1.5,1-2.4,1
			c-1.7,0-2.7-1.1-2.4-2.7c0.2-1.6,1.6-2.8,3.2-2.8C111.1,17.1,111.8,18.3,111.4,20.3z M110.1,19.4c0.1-0.5-0.2-1-0.7-1.2
			c-0.1,0-0.2,0-0.3,0c-0.7,0-1.3,0.5-1.4,1.2H110.1z"/>
		<path class="st5" d="M115.4,21.9c-0.5,0.5-1.1,0.7-1.8,0.7c-1.2,0-1.8-0.7-1.6-1.7c0.1-1,0.9-1.6,2.3-1.6h1.5v-0.1
			c0.1-0.6-0.3-0.9-1-0.9c-0.6,0-1.2,0.2-1.7,0.5l-0.3-1.1c0.8-0.4,1.6-0.6,2.5-0.6c1.4,0,2.2,0.7,2,1.9l-0.5,3.5h-1.5L115.4,21.9z
			 M115.5,20.7l0.1-0.5h-1.2c-0.6,0-0.9,0.2-1,0.6c-0.1,0.4,0.2,0.7,0.7,0.7C114.7,21.5,115.3,21.2,115.5,20.7z"/>
		<path class="st5" d="M119.9,21l-0.2,1.5h-1.5l1.1-7.4h1.5l-0.6,4.1l2.3-2h1.8l-2.3,2.1l1.6,3.3h-1.8l-1-2.2L119.9,21z"/>
		<path class="st5" d="M129.3,20.3h-3.9c0,0.6,0.6,1.1,1.2,1.1c0,0,0,0,0,0c0.5,0,1-0.2,1.4-0.6l0.7,0.8c-0.7,0.6-1.5,1-2.4,1
			c-1.7,0-2.7-1.1-2.4-2.7c0.2-1.6,1.6-2.8,3.2-2.8C129.1,17.1,129.8,18.3,129.3,20.3z M128,19.4c0.1-0.5-0.2-1-0.7-1.2
			c-0.1,0-0.2,0-0.3,0c-0.7,0-1.2,0.5-1.4,1.2H128z"/>
		<path class="st5" d="M132.2,18.1c0.4-0.6,1.2-1,1.9-1l-0.2,1.4c-0.9-0.2-1.8,0.4-2,1.3c0,0,0,0.1,0,0.1l-0.3,2.6h-1.5l0.8-5.4h1.5
			L132.2,18.1z"/>
		<path class="st5" d="M138.9,17.6l-0.7,1.1c-0.5-0.3-1-0.5-1.6-0.5c-0.4,0-0.7,0.1-0.7,0.4c-0.1,0.8,2.8,0.4,2.5,2.3
			c-0.2,1.1-1.2,1.7-2.4,1.7c-0.8,0-1.6-0.2-2.3-0.7l0.7-1c0.5,0.4,1.1,0.7,1.8,0.7c0.4,0,0.7-0.1,0.7-0.4c0.1-0.9-2.7-0.4-2.5-2.3
			c0.2-1.1,1.2-1.7,2.4-1.7C137.6,17,138.3,17.2,138.9,17.6z"/>
	</g>
	<g>
		<path class="st5" d="M69.3,30.6c-0.5,0-0.9-0.2-1.3-0.5c-0.3-0.3-0.5-0.8-0.5-1.3c0-0.5,0.2-0.9,0.5-1.3c0.3-0.3,0.8-0.5,1.2-0.5
			c0.4,0,0.9,0.1,1.2,0.4l-0.2,0.3c-0.3-0.2-0.6-0.3-1-0.3c-0.4,0-0.7,0.2-1,0.4c-0.3,0.3-0.4,0.7-0.4,1c0,0.4,0.2,0.8,0.4,1
			c0.3,0.3,0.6,0.4,1,0.4c0.3,0,0.6-0.1,0.8-0.2v-1.2h0.3v1.4C70.1,30.5,69.7,30.6,69.3,30.6z"/>
		<path class="st5" d="M72.3,27.1h1.2c0.3,0,0.6,0.1,0.8,0.3c0.4,0.4,0.4,0.9,0.1,1.3c-0.2,0.2-0.4,0.3-0.7,0.3l1,1.5h-0.4l-0.9-1.4
			h-0.8v1.4h-0.3V27.1z M72.6,27.4v1.4h0.9c0.2,0,0.4-0.1,0.6-0.2c0.1-0.1,0.2-0.3,0.2-0.5c0-0.2-0.1-0.4-0.2-0.5
			c-0.2-0.1-0.4-0.2-0.6-0.2L72.6,27.4z"/>
		<path class="st5" d="M79,27.6c0.3,0.3,0.5,0.8,0.5,1.3c0,0.5-0.2,0.9-0.5,1.3c-0.3,0.3-0.8,0.5-1.2,0.5c-0.5,0-0.9-0.2-1.2-0.5
			c-0.3-0.3-0.5-0.8-0.5-1.3c0-0.5,0.2-0.9,0.5-1.3c0.3-0.3,0.8-0.5,1.2-0.5C78.3,27.1,78.7,27.2,79,27.6z M78.8,29.9
			c0.3-0.3,0.4-0.6,0.4-1c0-0.4-0.1-0.8-0.4-1c-0.3-0.3-0.6-0.4-1-0.4c-0.4,0-0.7,0.2-1,0.4c-0.3,0.3-0.4,0.7-0.4,1
			c0,0.4,0.1,0.8,0.4,1c0.3,0.3,0.6,0.4,1,0.4C78.2,30.3,78.5,30.1,78.8,29.9z"/>
		<path class="st5" d="M85.6,27.1l-1.1,3.4h-0.4l-0.9-3l-0.9,3h-0.4l-1.1-3.4h0.4l1,3l0.9-3h0.4l0.9,3l1-3H85.6z"/>
		<path class="st5" d="M90.1,29.4l-1.3-2.3h0.4l1.1,1.9l1.1-1.9h0.3l-1.3,2.3v1.2h-0.3L90.1,29.4z"/>
		<path class="st5" d="M95.7,27.6c0.3,0.3,0.5,0.8,0.5,1.3c0,0.5-0.2,0.9-0.5,1.3c-0.7,0.7-1.8,0.7-2.4,0c0,0,0,0,0,0
			c-0.3-0.3-0.5-0.8-0.5-1.3c0-0.5,0.2-0.9,0.5-1.3C93.9,26.9,95,26.9,95.7,27.6C95.7,27.6,95.7,27.6,95.7,27.6z M95.5,29.9
			c0.3-0.3,0.4-0.6,0.4-1c0-0.4-0.1-0.8-0.4-1c-0.5-0.6-1.3-0.6-1.9-0.1c0,0-0.1,0.1-0.1,0.1c-0.3,0.3-0.4,0.7-0.4,1
			c0,0.4,0.1,0.8,0.4,1c0.5,0.6,1.3,0.6,1.9,0.1C95.4,29.9,95.5,29.9,95.5,29.9z"/>
		<path class="st5" d="M97.9,27.1h0.3v2.1c0,0.3,0.1,0.5,0.3,0.7c0.2,0.2,0.4,0.3,0.7,0.3c0.3,0,0.5-0.1,0.7-0.3
			c0.2-0.2,0.3-0.5,0.3-0.7v-2.2h0.3v2.1c0,0.4-0.1,0.7-0.4,1c-0.5,0.5-1.3,0.5-1.9,0c-0.2-0.3-0.4-0.6-0.3-1L97.9,27.1z"/>
		<path class="st5" d="M102.3,27.1h1.2c0.3,0,0.6,0.1,0.8,0.3c0.4,0.4,0.4,0.9,0.1,1.3c-0.2,0.2-0.4,0.3-0.7,0.3l0.9,1.5h-0.4
			l-0.9-1.4h-0.8v1.4h-0.3L102.3,27.1z M102.6,27.4v1.4h0.9c0.2,0,0.4-0.1,0.6-0.2c0.1-0.1,0.2-0.3,0.2-0.5c0-0.2-0.1-0.4-0.2-0.5
			c-0.2-0.1-0.4-0.2-0.6-0.2L102.6,27.4z"/>
		<path class="st5" d="M108.5,27.1h1.3c0.3,0,0.5,0.1,0.7,0.3c0.2,0.2,0.3,0.4,0.3,0.7c0,0.2-0.1,0.3-0.2,0.5
			c-0.1,0.1-0.2,0.2-0.4,0.3c0.2,0.1,0.3,0.2,0.5,0.3c0.1,0.2,0.2,0.3,0.2,0.5c0,0.3-0.1,0.5-0.3,0.7c-0.2,0.2-0.5,0.3-0.7,0.3h-1.4
			L108.5,27.1z M108.8,27.4v1.2h1c0.2,0,0.4-0.1,0.5-0.2c0.2-0.2,0.3-0.6,0.1-0.8c0,0,0-0.1-0.1-0.1c-0.1-0.1-0.3-0.2-0.5-0.2
			L108.8,27.4z M108.8,28.9v1.3h1.1c0.2,0,0.4-0.1,0.5-0.2c0.3-0.2,0.3-0.6,0.1-0.9c0,0,0-0.1-0.1-0.1c-0.2-0.1-0.3-0.2-0.5-0.2
			L108.8,28.9z"/>
		<path class="st5" d="M112.6,27.1h0.3v2.1c0,0.3,0.1,0.5,0.3,0.7c0.2,0.2,0.4,0.3,0.7,0.3c0.3,0,0.5-0.1,0.7-0.3
			c0.2-0.2,0.3-0.5,0.3-0.7v-2.2h0.3v2.1c0,0.4-0.1,0.7-0.4,1c-0.2,0.3-0.6,0.4-0.9,0.4c-0.3,0-0.7-0.1-0.9-0.4
			c-0.2-0.3-0.4-0.6-0.3-1L112.6,27.1z"/>
		<path class="st5" d="M118.9,27.8c-0.1-0.1-0.2-0.2-0.4-0.3c-0.2-0.1-0.3-0.1-0.5-0.1c-0.2,0-0.4,0-0.6,0.2
			c-0.1,0.1-0.2,0.2-0.2,0.4c0,0.2,0.1,0.3,0.2,0.4c0.2,0.1,0.3,0.2,0.5,0.2l0.6,0.2c0.2,0.1,0.4,0.2,0.5,0.3
			c0.1,0.2,0.2,0.4,0.2,0.6c0,0.3-0.1,0.5-0.3,0.7c-0.3,0.2-0.6,0.3-0.9,0.3c-0.3,0-0.5,0-0.7-0.2c-0.2-0.1-0.4-0.2-0.5-0.4l0.2-0.2
			c0.2,0.3,0.6,0.5,1,0.5c0.2,0,0.5,0,0.7-0.2c0.2-0.1,0.2-0.3,0.2-0.5c0-0.1,0-0.3-0.1-0.4c-0.1-0.1-0.2-0.2-0.4-0.2l-0.5-0.2
			l-0.5-0.2c-0.1-0.1-0.3-0.2-0.4-0.3c-0.1-0.1-0.2-0.3-0.1-0.5c0-0.3,0.1-0.5,0.3-0.6c0.2-0.2,0.5-0.3,0.8-0.2c0.2,0,0.5,0,0.7,0.1
			c0.2,0.1,0.3,0.2,0.5,0.4L118.9,27.8z"/>
		<path class="st5" d="M120.9,27.1h0.3v3.4h-0.3V27.1z"/>
		<path class="st5" d="M123.4,27.6v2.9h-0.3v-3.4h0.3l2.2,2.9v-2.9h0.3v3.4h-0.3L123.4,27.6z"/>
		<path class="st5" d="M127.8,27.1h2.1v0.3h-1.8v1.3h1.6V29h-1.6v1.3h1.8v0.3h-2.1V27.1z"/>
		<path class="st5" d="M133.5,27.8c-0.1-0.1-0.2-0.2-0.4-0.3c-0.2-0.1-0.3-0.1-0.5-0.1c-0.2,0-0.4,0-0.6,0.2
			c-0.1,0.1-0.2,0.2-0.2,0.4c0,0.2,0.1,0.3,0.2,0.4c0.2,0.1,0.3,0.2,0.5,0.2l0.6,0.2c0.2,0.1,0.4,0.2,0.5,0.3
			c0.1,0.2,0.2,0.4,0.2,0.6c0,0.3-0.1,0.5-0.3,0.7c-0.3,0.2-0.6,0.3-0.9,0.3c-0.3,0-0.5,0-0.7-0.2c-0.2-0.1-0.4-0.2-0.5-0.4l0.2-0.2
			c0.2,0.3,0.6,0.5,1,0.5c0.2,0,0.5,0,0.7-0.2c0.2-0.1,0.2-0.3,0.2-0.5c0-0.1-0.1-0.3-0.2-0.4c-0.1-0.1-0.2-0.2-0.4-0.2l-0.5-0.2
			l-0.5-0.2c-0.1-0.1-0.3-0.2-0.4-0.3c-0.1-0.1-0.2-0.3-0.2-0.5c0-0.3,0.1-0.5,0.3-0.6c0.2-0.2,0.5-0.3,0.8-0.2c0.2,0,0.5,0,0.7,0.1
			c0.2,0.1,0.3,0.2,0.4,0.4L133.5,27.8z"/>
		<path class="st5" d="M137.3,27.8c-0.1-0.1-0.2-0.2-0.4-0.3c-0.2-0.1-0.3-0.1-0.5-0.1c-0.2,0-0.4,0-0.6,0.2
			c-0.1,0.1-0.2,0.2-0.2,0.4c0,0.2,0.1,0.3,0.2,0.4c0.2,0.1,0.3,0.2,0.5,0.2l0.6,0.2c0.2,0.1,0.4,0.2,0.5,0.3
			c0.1,0.2,0.2,0.4,0.2,0.6c0,0.3-0.1,0.5-0.3,0.7c-0.3,0.2-0.6,0.3-0.9,0.3c-0.3,0-0.5,0-0.7-0.2c-0.2-0.1-0.4-0.2-0.5-0.4l0.2-0.2
			c0.2,0.3,0.6,0.5,1,0.5c0.2,0,0.4,0,0.6-0.2c0.2-0.1,0.2-0.3,0.2-0.5c0-0.1-0.1-0.3-0.1-0.4c-0.1-0.1-0.2-0.2-0.4-0.2l-0.5-0.2
			l-0.5-0.2c-0.1-0.1-0.3-0.2-0.4-0.3c-0.1-0.1-0.2-0.3-0.2-0.5c0-0.3,0.1-0.5,0.3-0.6c0.2-0.2,0.5-0.3,0.8-0.2c0.2,0,0.5,0,0.7,0.1
			c0.2,0.1,0.3,0.2,0.4,0.4L137.3,27.8z"/>
	</g>
</g>
</svg>
